<?xml version="1.0" standalone="no"?>
<!DOCTYPE svg PUBLIC "-//W3C//DTD SVG 20010904//EN"
 "http://www.w3.org/TR/2001/REC-SVG-20010904/DTD/svg10.dtd">
<svg version="1.0" xmlns="http://www.w3.org/2000/svg"
 width="684.000000pt" height="684.000000pt" viewBox="0 0 684.000000 684.000000"
 preserveAspectRatio="xMidYMid meet">
<metadata>
Created by potrace 1.11, written by Peter Selinger 2001-2013
</metadata>
<g transform="translate(0.000000,684.000000) scale(0.100000,-0.100000)"
fill="#000000" stroke="none">
<path d="M2650 5563 c-57 -14 -71 -22 -125 -77 -33 -34 -71 -84 -85 -111 -13
-28 -33 -63 -45 -80 -11 -16 -25 -39 -32 -50 -6 -11 -113 -189 -237 -395 -204
-340 -226 -381 -237 -443 -16 -86 -2 -166 45 -252 18 -33 115 -213 215 -400
101 -187 210 -389 243 -450 72 -131 99 -180 163 -300 27 -49 94 -173 150 -275
56 -102 128 -234 160 -295 212 -399 229 -423 328 -473 55 -28 92 -30 317 -19
217 11 284 30 351 98 126 129 143 338 39 477 -54 71 -110 101 -221 116 -185
26 -208 50 -379 381 -32 61 -97 184 -145 275 -48 91 -136 257 -195 370 -59
113 -129 246 -157 295 -116 212 -125 237 -125 336 0 102 14 139 118 317 69
119 112 165 189 204 57 29 64 30 145 24 47 -3 126 -8 175 -11 132 -8 475 -31
840 -56 364 -25 395 -32 470 -105 33 -31 61 -75 97 -152 27 -59 81 -172 119
-251 38 -79 69 -144 69 -146 0 -1 45 -96 100 -210 55 -113 100 -208 100 -210
0 -17 223 -458 245 -483 58 -69 157 -96 243 -68 64 22 117 73 153 150 24 51
29 74 29 137 0 98 -9 122 -178 480 -64 135 -98 209 -162 349 -29 63 -70 153
-92 200 -22 47 -94 202 -160 345 -217 471 -228 490 -326 539 -40 20 -86 27
-317 50 -148 15 -288 29 -310 32 -22 2 -308 31 -636 64 -526 53 -681 68 -834
84 -22 3 -69 -2 -105 -11z"/>
<path d="M3779 4337 c-153 -57 -238 -229 -195 -394 40 -158 138 -245 306 -272
85 -14 145 -44 188 -97 17 -20 179 -334 361 -698 l331 -661 2 -85 c1 -96 -8
-124 -109 -323 -65 -128 -106 -177 -176 -212 -50 -24 -76 -26 -697 -71 -764
-54 -786 -55 -860 -26 -77 30 -117 76 -196 222 -36 69 -86 160 -111 203 -24
42 -54 96 -67 120 -62 112 -402 726 -417 752 -10 17 -30 53 -45 80 -100 188
-158 253 -258 293 -167 66 -373 -23 -454 -195 -23 -50 -27 -71 -27 -153 0
-107 1 -110 121 -320 34 -58 91 -159 129 -225 37 -66 81 -142 98 -170 17 -27
67 -115 112 -195 44 -80 110 -194 146 -255 36 -60 146 -252 244 -425 98 -173
187 -329 197 -347 48 -81 156 -143 250 -143 26 0 386 34 800 76 414 41 771 77
793 79 398 39 486 50 532 67 83 31 130 91 238 312 51 105 152 311 224 458 163
332 180 390 146 501 -15 51 -35 93 -230 492 -70 143 -160 328 -200 410 -40 83
-131 269 -203 415 -71 146 -172 353 -225 461 -79 161 -104 203 -142 238 -85
79 -119 86 -405 96 -125 4 -174 2 -201 -8z"/>
</g>
</svg>
